<mxfile host="Electron" modified="2024-04-12T13:42:44.842Z" agent="Mozilla/5.0 (X11; Linux x86_64) AppleWebKit/537.36 (KHTML, like Gecko) draw.io/22.1.18 Chrome/120.0.6099.199 Electron/28.1.2 Safari/537.36" etag="0G_RtIVw1AksKZ41plzJ" version="22.1.18" type="device">
  <diagram id="fSZUoynCk3D5YvDWxTSG" name="Page-1">
    <mxGraphModel dx="1434" dy="839" grid="1" gridSize="10" guides="1" tooltips="1" connect="1" arrows="1" fold="1" page="1" pageScale="1" pageWidth="1169" pageHeight="1654" math="0" shadow="0">
      <root>
        <mxCell id="0" />
        <mxCell id="1" parent="0" />
        <mxCell id="-8OgYCJS6DoAWlKZsLcz-2" value="Клиент" style="shape=umlActor;verticalLabelPosition=bottom;verticalAlign=top;html=1;outlineConnect=0;" parent="1" vertex="1">
          <mxGeometry x="40" y="140" width="30" height="60" as="geometry" />
        </mxCell>
        <mxCell id="-8OgYCJS6DoAWlKZsLcz-3" value="Стилист-&lt;br&gt;парикмахер" style="shape=umlActor;verticalLabelPosition=bottom;verticalAlign=top;html=1;outlineConnect=0;" parent="1" vertex="1">
          <mxGeometry x="600" y="380" width="30" height="60" as="geometry" />
        </mxCell>
        <mxCell id="-8OgYCJS6DoAWlKZsLcz-4" value="Руководитель&amp;nbsp;&lt;br&gt;парикмахерской&amp;nbsp;&lt;br&gt;(администратор)" style="shape=umlActor;verticalLabelPosition=bottom;verticalAlign=top;html=1;outlineConnect=0;" parent="1" vertex="1">
          <mxGeometry x="40" y="320" width="30" height="60" as="geometry" />
        </mxCell>
        <mxCell id="-8OgYCJS6DoAWlKZsLcz-7" value="Просмотр информации о парикмахерской" style="ellipse;whiteSpace=wrap;html=1;" parent="1" vertex="1">
          <mxGeometry x="60" y="50" width="130" height="60" as="geometry" />
        </mxCell>
        <mxCell id="-8OgYCJS6DoAWlKZsLcz-10" value="Регистрация в веб-приложении" style="ellipse;whiteSpace=wrap;html=1;" parent="1" vertex="1">
          <mxGeometry x="200" y="130" width="130" height="50" as="geometry" />
        </mxCell>
        <mxCell id="-8OgYCJS6DoAWlKZsLcz-11" value="Авторизация в веб-приложении" style="ellipse;whiteSpace=wrap;html=1;" parent="1" vertex="1">
          <mxGeometry x="200" y="190" width="130" height="40" as="geometry" />
        </mxCell>
        <mxCell id="-8OgYCJS6DoAWlKZsLcz-12" value="Онлайн запись в парикмахерскую" style="ellipse;whiteSpace=wrap;html=1;" parent="1" vertex="1">
          <mxGeometry x="195" y="240" width="140" height="70" as="geometry" />
        </mxCell>
        <mxCell id="-8OgYCJS6DoAWlKZsLcz-14" value="Редактирование записей" style="ellipse;whiteSpace=wrap;html=1;" parent="1" vertex="1">
          <mxGeometry x="195" y="320" width="140" height="40" as="geometry" />
        </mxCell>
        <mxCell id="-8OgYCJS6DoAWlKZsLcz-15" value="Проверка времени и даты записи" style="ellipse;whiteSpace=wrap;html=1;" parent="1" vertex="1">
          <mxGeometry x="505" y="220" width="110" height="60" as="geometry" />
        </mxCell>
        <mxCell id="-8OgYCJS6DoAWlKZsLcz-16" value="Фильтрация данных и построение отчетов" style="ellipse;whiteSpace=wrap;html=1;" parent="1" vertex="1">
          <mxGeometry x="195" y="400" width="140" height="50" as="geometry" />
        </mxCell>
        <mxCell id="-8OgYCJS6DoAWlKZsLcz-22" value="" style="endArrow=none;html=1;entryX=0;entryY=0.5;entryDx=0;entryDy=0;exitX=0.5;exitY=0.5;exitDx=0;exitDy=0;exitPerimeter=0;" parent="1" source="-8OgYCJS6DoAWlKZsLcz-2" target="-8OgYCJS6DoAWlKZsLcz-10" edge="1">
          <mxGeometry width="50" height="50" relative="1" as="geometry">
            <mxPoint x="225" y="180" as="sourcePoint" />
            <mxPoint x="380" y="130" as="targetPoint" />
          </mxGeometry>
        </mxCell>
        <mxCell id="-8OgYCJS6DoAWlKZsLcz-23" value="" style="endArrow=none;html=1;entryX=0;entryY=0.5;entryDx=0;entryDy=0;exitX=0.5;exitY=0.5;exitDx=0;exitDy=0;exitPerimeter=0;" parent="1" source="-8OgYCJS6DoAWlKZsLcz-2" target="-8OgYCJS6DoAWlKZsLcz-11" edge="1">
          <mxGeometry width="50" height="50" relative="1" as="geometry">
            <mxPoint x="225" y="180" as="sourcePoint" />
            <mxPoint x="390" y="140" as="targetPoint" />
          </mxGeometry>
        </mxCell>
        <mxCell id="-8OgYCJS6DoAWlKZsLcz-25" value="extend" style="html=1;verticalAlign=bottom;endArrow=open;dashed=1;endSize=8;exitX=0;exitY=1;exitDx=0;exitDy=0;entryX=1;entryY=0;entryDx=0;entryDy=0;" parent="1" source="PNE20jnFDNO4Q5d3jiWZ-1" target="-8OgYCJS6DoAWlKZsLcz-12" edge="1">
          <mxGeometry x="-0.4286" y="23" relative="1" as="geometry">
            <mxPoint x="350" y="540" as="sourcePoint" />
            <mxPoint x="130" y="640" as="targetPoint" />
            <mxPoint as="offset" />
          </mxGeometry>
        </mxCell>
        <mxCell id="-8OgYCJS6DoAWlKZsLcz-27" value="" style="endArrow=none;html=1;entryX=0;entryY=0.5;entryDx=0;entryDy=0;exitX=0.5;exitY=0.5;exitDx=0;exitDy=0;exitPerimeter=0;" parent="1" source="-8OgYCJS6DoAWlKZsLcz-2" target="-8OgYCJS6DoAWlKZsLcz-12" edge="1">
          <mxGeometry width="50" height="50" relative="1" as="geometry">
            <mxPoint x="235" y="420" as="sourcePoint" />
            <mxPoint x="370" y="320" as="targetPoint" />
          </mxGeometry>
        </mxCell>
        <mxCell id="-8OgYCJS6DoAWlKZsLcz-30" value="" style="endArrow=none;html=1;entryX=0;entryY=0.5;entryDx=0;entryDy=0;exitX=0.5;exitY=0.5;exitDx=0;exitDy=0;exitPerimeter=0;" parent="1" source="-8OgYCJS6DoAWlKZsLcz-2" target="-8OgYCJS6DoAWlKZsLcz-16" edge="1">
          <mxGeometry width="50" height="50" relative="1" as="geometry">
            <mxPoint x="265" y="450" as="sourcePoint" />
            <mxPoint x="200" y="440" as="targetPoint" />
          </mxGeometry>
        </mxCell>
        <mxCell id="-8OgYCJS6DoAWlKZsLcz-32" value="" style="endArrow=none;html=1;entryX=0;entryY=0.5;entryDx=0;entryDy=0;exitX=0.5;exitY=0.5;exitDx=0;exitDy=0;exitPerimeter=0;" parent="1" source="-8OgYCJS6DoAWlKZsLcz-4" target="-8OgYCJS6DoAWlKZsLcz-16" edge="1">
          <mxGeometry width="50" height="50" relative="1" as="geometry">
            <mxPoint x="565" y="662" as="sourcePoint" />
            <mxPoint x="430" y="752" as="targetPoint" />
          </mxGeometry>
        </mxCell>
        <mxCell id="-8OgYCJS6DoAWlKZsLcz-34" value="Управление операторами ИС" style="ellipse;whiteSpace=wrap;html=1;" parent="1" vertex="1">
          <mxGeometry x="195" y="470" width="140" height="60" as="geometry" />
        </mxCell>
        <mxCell id="-8OgYCJS6DoAWlKZsLcz-36" value="" style="endArrow=none;html=1;entryX=0;entryY=0.5;entryDx=0;entryDy=0;exitX=0.5;exitY=0.5;exitDx=0;exitDy=0;exitPerimeter=0;" parent="1" source="-8OgYCJS6DoAWlKZsLcz-4" target="-8OgYCJS6DoAWlKZsLcz-34" edge="1">
          <mxGeometry width="50" height="50" relative="1" as="geometry">
            <mxPoint x="565" y="662" as="sourcePoint" />
            <mxPoint x="430" y="752" as="targetPoint" />
          </mxGeometry>
        </mxCell>
        <mxCell id="-8OgYCJS6DoAWlKZsLcz-41" value="" style="endArrow=none;html=1;exitX=1;exitY=0.5;exitDx=0;exitDy=0;entryX=0.5;entryY=0.5;entryDx=0;entryDy=0;entryPerimeter=0;" parent="1" source="-8OgYCJS6DoAWlKZsLcz-14" target="-8OgYCJS6DoAWlKZsLcz-3" edge="1">
          <mxGeometry width="50" height="50" relative="1" as="geometry">
            <mxPoint x="430" y="480" as="sourcePoint" />
            <mxPoint x="540" y="630" as="targetPoint" />
          </mxGeometry>
        </mxCell>
        <mxCell id="-8OgYCJS6DoAWlKZsLcz-44" value="" style="endArrow=none;html=1;entryX=0.5;entryY=0.5;entryDx=0;entryDy=0;entryPerimeter=0;exitX=1;exitY=0.5;exitDx=0;exitDy=0;" parent="1" source="-8OgYCJS6DoAWlKZsLcz-16" target="-8OgYCJS6DoAWlKZsLcz-3" edge="1">
          <mxGeometry width="50" height="50" relative="1" as="geometry">
            <mxPoint x="440" y="662" as="sourcePoint" />
            <mxPoint x="635" y="612" as="targetPoint" />
          </mxGeometry>
        </mxCell>
        <mxCell id="PNE20jnFDNO4Q5d3jiWZ-1" value="Отмена записей на прием" style="ellipse;whiteSpace=wrap;html=1;" parent="1" vertex="1">
          <mxGeometry x="490" y="170" width="140" height="40" as="geometry" />
        </mxCell>
        <mxCell id="PNE20jnFDNO4Q5d3jiWZ-2" value="Просмотр записей" style="ellipse;whiteSpace=wrap;html=1;" parent="1" vertex="1">
          <mxGeometry x="380" y="130" width="140" height="40" as="geometry" />
        </mxCell>
        <mxCell id="PNE20jnFDNO4Q5d3jiWZ-4" value="extend" style="html=1;verticalAlign=bottom;endArrow=open;dashed=1;endSize=8;exitX=0.5;exitY=1;exitDx=0;exitDy=0;entryX=1;entryY=0;entryDx=0;entryDy=0;" parent="1" source="PNE20jnFDNO4Q5d3jiWZ-2" target="-8OgYCJS6DoAWlKZsLcz-12" edge="1">
          <mxGeometry x="-0.0402" y="-10" relative="1" as="geometry">
            <mxPoint x="460" y="360" as="sourcePoint" />
            <mxPoint x="409.49747468305804" y="405.85786437626916" as="targetPoint" />
            <mxPoint as="offset" />
          </mxGeometry>
        </mxCell>
        <mxCell id="PNE20jnFDNO4Q5d3jiWZ-5" value="include" style="html=1;verticalAlign=bottom;endArrow=open;dashed=1;endSize=8;exitX=1;exitY=0.5;exitDx=0;exitDy=0;entryX=0;entryY=0.5;entryDx=0;entryDy=0;" parent="1" source="-8OgYCJS6DoAWlKZsLcz-12" target="-8OgYCJS6DoAWlKZsLcz-15" edge="1">
          <mxGeometry x="0.25" y="-20" relative="1" as="geometry">
            <mxPoint x="280" y="360" as="sourcePoint" />
            <mxPoint x="130" y="400" as="targetPoint" />
            <mxPoint as="offset" />
          </mxGeometry>
        </mxCell>
        <mxCell id="PNE20jnFDNO4Q5d3jiWZ-6" value="extend" style="html=1;verticalAlign=bottom;endArrow=open;dashed=1;endSize=8;exitX=0.5;exitY=1;exitDx=0;exitDy=0;entryX=0.5;entryY=0;entryDx=0;entryDy=0;" parent="1" source="-8OgYCJS6DoAWlKZsLcz-14" target="-8OgYCJS6DoAWlKZsLcz-16" edge="1">
          <mxGeometry y="-25" relative="1" as="geometry">
            <mxPoint x="290" y="370" as="sourcePoint" />
            <mxPoint x="320.50252531694196" y="415.85786437626916" as="targetPoint" />
            <mxPoint as="offset" />
          </mxGeometry>
        </mxCell>
        <mxCell id="PNE20jnFDNO4Q5d3jiWZ-10" value="" style="endArrow=none;html=1;rounded=0;entryX=1;entryY=1;entryDx=0;entryDy=0;exitX=0.5;exitY=0.5;exitDx=0;exitDy=0;exitPerimeter=0;" parent="1" source="-8OgYCJS6DoAWlKZsLcz-3" target="-8OgYCJS6DoAWlKZsLcz-12" edge="1">
          <mxGeometry width="50" height="50" relative="1" as="geometry">
            <mxPoint x="790" y="610" as="sourcePoint" />
            <mxPoint x="830" y="560" as="targetPoint" />
          </mxGeometry>
        </mxCell>
        <mxCell id="PNE20jnFDNO4Q5d3jiWZ-11" value="" style="endArrow=none;html=1;rounded=0;entryX=0.5;entryY=0.5;entryDx=0;entryDy=0;entryPerimeter=0;exitX=0;exitY=1;exitDx=0;exitDy=0;" parent="1" source="-8OgYCJS6DoAWlKZsLcz-12" target="-8OgYCJS6DoAWlKZsLcz-4" edge="1">
          <mxGeometry width="50" height="50" relative="1" as="geometry">
            <mxPoint x="800" y="630" as="sourcePoint" />
            <mxPoint x="850" y="580" as="targetPoint" />
          </mxGeometry>
        </mxCell>
        <mxCell id="bZwB-_15QI4RK-BS_CzO-1" value="" style="endArrow=none;html=1;entryX=0;entryY=1;entryDx=0;entryDy=0;exitX=0.5;exitY=0.5;exitDx=0;exitDy=0;exitPerimeter=0;" parent="1" source="-8OgYCJS6DoAWlKZsLcz-2" target="-8OgYCJS6DoAWlKZsLcz-7" edge="1">
          <mxGeometry width="50" height="50" relative="1" as="geometry">
            <mxPoint x="215" y="370" as="sourcePoint" />
            <mxPoint x="380" y="470" as="targetPoint" />
          </mxGeometry>
        </mxCell>
        <mxCell id="upIFWhD-aiCeypHb-PK1-1" value="Просмотр информации об услугах и ценах" style="ellipse;whiteSpace=wrap;html=1;" parent="1" vertex="1">
          <mxGeometry x="205" y="60" width="120" height="60" as="geometry" />
        </mxCell>
        <mxCell id="upIFWhD-aiCeypHb-PK1-2" value="" style="endArrow=none;html=1;rounded=0;entryX=0;entryY=0.5;entryDx=0;entryDy=0;exitX=0.5;exitY=0.5;exitDx=0;exitDy=0;exitPerimeter=0;" parent="1" source="-8OgYCJS6DoAWlKZsLcz-2" target="upIFWhD-aiCeypHb-PK1-1" edge="1">
          <mxGeometry width="50" height="50" relative="1" as="geometry">
            <mxPoint x="130" y="160" as="sourcePoint" />
            <mxPoint x="200" y="100" as="targetPoint" />
          </mxGeometry>
        </mxCell>
        <mxCell id="upIFWhD-aiCeypHb-PK1-3" value="Запись на прием" style="ellipse;whiteSpace=wrap;html=1;" parent="1" vertex="1">
          <mxGeometry x="505" y="290" width="110" height="60" as="geometry" />
        </mxCell>
        <mxCell id="upIFWhD-aiCeypHb-PK1-5" value="include" style="html=1;verticalAlign=bottom;endArrow=open;dashed=1;endSize=8;exitX=1;exitY=0.5;exitDx=0;exitDy=0;entryX=0;entryY=0.5;entryDx=0;entryDy=0;" parent="1" source="-8OgYCJS6DoAWlKZsLcz-12" target="upIFWhD-aiCeypHb-PK1-3" edge="1">
          <mxGeometry x="0.25" y="-20" relative="1" as="geometry">
            <mxPoint x="360" y="335" as="sourcePoint" />
            <mxPoint x="650" y="360" as="targetPoint" />
            <mxPoint as="offset" />
          </mxGeometry>
        </mxCell>
        <mxCell id="upIFWhD-aiCeypHb-PK1-9" value="Экспорт &lt;br&gt;записей в Excel" style="ellipse;whiteSpace=wrap;html=1;" parent="1" vertex="1">
          <mxGeometry x="350" y="470" width="140" height="40" as="geometry" />
        </mxCell>
        <mxCell id="upIFWhD-aiCeypHb-PK1-10" value="extend" style="html=1;verticalAlign=bottom;endArrow=open;dashed=1;endSize=8;exitX=1;exitY=1;exitDx=0;exitDy=0;entryX=0;entryY=0;entryDx=0;entryDy=0;" parent="1" source="-8OgYCJS6DoAWlKZsLcz-16" target="upIFWhD-aiCeypHb-PK1-9" edge="1">
          <mxGeometry x="0.474" y="8" relative="1" as="geometry">
            <mxPoint x="275" y="360" as="sourcePoint" />
            <mxPoint x="275" y="320" as="targetPoint" />
            <mxPoint as="offset" />
          </mxGeometry>
        </mxCell>
      </root>
    </mxGraphModel>
  </diagram>
</mxfile>
